<svg width="20" height="20" viewBox="0 0 20 20" fill="none" xmlns="http://www.w3.org/2000/svg">
<g clip-path="url(#clip0_430_1244)">
<path d="M6.87834 15.2117C6.87834 13.9617 7.7375 12.2534 9.295 10.4009C9.3812 10.298 9.48916 10.2156 9.61107 10.1596C9.73299 10.1035 9.86583 10.0752 10 10.0767C10.1352 10.0761 10.2688 10.1049 10.3917 10.1612C10.5146 10.2175 10.6238 10.2998 10.7117 10.4026C12.4167 12.4001 13.25 14.1667 13.1058 15.5209C13.0491 15.949 12.9023 16.3603 12.675 16.7276C12.4478 17.0949 12.1453 17.4098 11.7875 17.6517C11.2813 18.0667 10.654 18.306 10 18.3334C9.17236 18.3325 8.37886 18.0033 7.79363 17.4181C7.20839 16.8329 6.87922 16.0394 6.87834 15.2117Z" fill="#EF5B4F"/>
<path d="M6.14251 2.41666C6.79751 1.85999 7.485 1.27666 8.18501 0.639988C8.45043 0.399015 8.76532 0.218966 9.10762 0.112445C9.44993 0.00592464 9.81138 -0.0244929 10.1667 0.0233218C10.511 0.0689272 10.8411 0.189588 11.1337 0.376781C11.4263 0.563974 11.6743 0.813132 11.86 1.10666C12.853 2.76651 13.5553 4.58374 13.9367 6.47999C14.0859 6.26395 14.2185 6.03691 14.3333 5.80082C14.4513 5.55231 14.6289 5.33686 14.8504 5.17368C15.0718 5.01051 15.3302 4.90468 15.6025 4.86565C15.8748 4.82662 16.1526 4.8556 16.411 4.95C16.6693 5.0444 16.9003 5.20128 17.0833 5.40665C18.4806 6.83532 19.2551 8.75922 19.2375 10.7575C19.2568 12.7987 18.593 14.7877 17.3516 16.4081C16.1102 18.0286 14.3625 19.1873 12.3867 19.7C11.6301 19.8903 10.8534 19.9888 10.0733 19.9933C11.0702 19.9562 12.0284 19.5978 12.805 18.9717C13.343 18.593 13.7954 18.1055 14.1327 17.5407C14.4701 16.9759 14.685 16.3465 14.7633 15.6933C14.955 13.8517 14.0192 11.7075 11.9817 9.32082C11.7372 9.03429 11.4334 8.8044 11.0912 8.64711C10.749 8.48983 10.3766 8.40891 10 8.40999H9.99167C9.61615 8.4103 9.24522 8.49247 8.9047 8.65078C8.56418 8.80909 8.26227 9.03974 8.02001 9.32666C6.73834 10.8492 5.20917 13.1058 5.20917 15.2108C5.21102 16.4239 5.67299 17.5911 6.50184 18.4769C7.3307 19.3627 8.46471 19.901 9.675 19.9833C7.28196 19.9062 5.01292 18.9006 3.34853 17.1794C1.68414 15.4583 0.755148 13.1568 0.758337 10.7625C0.762505 6.98749 3.25584 4.87082 6.14251 2.41666Z" fill="#EF5B4F"/>
</g>
<defs>
<clipPath id="clip0_430_1244">
<rect width="20" height="20" fill="white" transform="matrix(-1 0 0 1 20 0)"/>
</clipPath>
</defs>
</svg>
