<svg width="20" height="20" viewBox="0 0 20 20" fill="none" xmlns="http://www.w3.org/2000/svg">
<path d="M6.14238 2.41666C6.79738 1.85999 7.48488 1.27666 8.18488 0.639988C8.45031 0.399015 8.7652 0.218966 9.1075 0.112445C9.44981 0.00592464 9.81126 -0.0244929 10.1665 0.0233218C10.5109 0.0689272 10.841 0.189588 11.1336 0.376781C11.4262 0.563974 11.6741 0.813132 11.8599 1.10666C12.8529 2.76651 13.5552 4.58374 13.9365 6.47999C14.0857 6.26395 14.2183 6.03691 14.3332 5.80082C14.4512 5.55231 14.6288 5.33686 14.8503 5.17368C15.0717 5.01051 15.3301 4.90468 15.6024 4.86565C15.8747 4.82662 16.1525 4.8556 16.4108 4.95C16.6692 5.0444 16.9002 5.20128 17.0832 5.40665C18.4805 6.83532 19.255 8.75922 19.2374 10.7575C19.2567 12.7987 18.5929 14.7877 17.3515 16.4081C16.1101 18.0286 14.3624 19.1873 12.3865 19.7C11.63 19.8903 10.8533 19.9888 10.0732 19.9933C11.0701 19.9562 12.0283 19.5978 12.8049 18.9717C13.3429 18.593 13.7952 18.1055 14.1326 17.5407C14.47 16.9759 14.6848 16.3465 14.7632 15.6933C14.9549 13.8517 14.019 11.7075 11.9815 9.32082C11.7371 9.03429 11.4333 8.8044 11.091 8.64711C10.7488 8.48983 10.3765 8.40891 9.99988 8.40999H9.99155C9.61603 8.4103 9.24509 8.49247 8.90458 8.65078C8.56406 8.80909 8.26215 9.03974 8.01988 9.32666C6.73822 10.8492 5.20905 13.1058 5.20905 15.2108C5.2109 16.4239 5.67287 17.5911 6.50172 18.4769C7.33057 19.3627 8.46459 19.901 9.67488 19.9833C7.28184 19.9062 5.0128 18.9006 3.34841 17.1794C1.68402 15.4583 0.755026 13.1568 0.758215 10.7625C0.762383 6.98749 3.25572 4.87082 6.14238 2.41666Z" fill="#EF5B4F"/>
</svg>
