<svg width="25" height="25" viewBox="0 0 25 25" fill="none" xmlns="http://www.w3.org/2000/svg">
<g clip-path="url(#clip0_570_437)">
<path d="M2.08335 18.2291H4.6875C5.83809 18.2291 6.77085 19.1619 6.77085 20.3125V22.9166C6.77085 24.0673 5.83809 25 4.6875 25H2.08335C0.932764 25 0 24.0673 0 22.9166V20.3125C0 19.1619 0.932764 18.2291 2.08335 18.2291Z" fill="#4F4F4F"/>
<path d="M20.3126 18.2291H22.9167C24.0674 18.2291 25.0001 19.1619 25.0001 20.3125V22.9166C25.0001 24.0673 24.0674 25 22.9167 25H20.3126C19.162 25 18.2292 24.0673 18.2292 22.9166V20.3125C18.2292 19.1619 19.162 18.2291 20.3126 18.2291Z" fill="#4F4F4F"/>
<path d="M2.08335 9.11462H4.6875C5.83809 9.11462 6.77085 10.0474 6.77085 11.198V13.8021C6.77085 14.9527 5.83809 15.8855 4.6875 15.8855H2.08335C0.932764 15.8854 0 14.9527 0 13.8021V11.198C0 10.0473 0.932764 9.11462 2.08335 9.11462Z" fill="#4F4F4F"/>
<path d="M20.3126 9.11462H22.9167C24.0673 9.11462 25.0001 10.0474 25.0001 11.198V13.8021C25.0001 14.9527 24.0674 15.8855 22.9167 15.8855H20.3126C19.162 15.8855 18.2292 14.9527 18.2292 13.8021V11.198C18.2292 10.0473 19.162 9.11462 20.3126 9.11462Z" fill="#4F4F4F"/>
<path d="M2.08335 0H4.6875C5.83809 0 6.77085 0.932764 6.77085 2.08335V4.6875C6.77085 5.83809 5.83809 6.77085 4.6875 6.77085H2.08335C0.932764 6.77085 0 5.83809 0 4.6875V2.08335C0 0.932764 0.932764 0 2.08335 0Z" fill="#4F4F4F"/>
<path d="M11.1979 18.2291H13.802C14.9526 18.2291 15.8854 19.1619 15.8854 20.3125V22.9166C15.8854 24.0672 14.9526 25 13.802 25H11.1979C10.0473 25 9.1145 24.0673 9.1145 22.9166V20.3125C9.11455 19.1619 10.0473 18.2291 11.1979 18.2291Z" fill="#4F4F4F"/>
<path d="M11.1979 9.11462H13.802C14.9526 9.11462 15.8854 10.0474 15.8854 11.198V13.8021C15.8854 14.9527 14.9526 15.8855 13.802 15.8855H11.1979C10.0473 15.8855 9.1145 14.9527 9.1145 13.8021V11.198C9.11455 10.0473 10.0473 9.11462 11.1979 9.11462Z" fill="#4F4F4F"/>
<path d="M11.1979 0H13.802C14.9526 0 15.8854 0.932764 15.8854 2.08335V4.6875C15.8854 5.83809 14.9526 6.77085 13.802 6.77085H11.1979C10.0473 6.77085 9.1145 5.83809 9.1145 4.6875V2.08335C9.11455 0.932764 10.0473 0 11.1979 0Z" fill="#4F4F4F"/>
<path d="M20.3126 0H22.9167C24.0674 0 25.0001 0.932764 25.0001 2.08335V4.6875C25.0001 5.83809 24.0674 6.77085 22.9167 6.77085H20.3126C19.162 6.77085 18.2292 5.83809 18.2292 4.6875V2.08335C18.2292 0.932764 19.162 0 20.3126 0Z" fill="#4F4F4F"/>
</g>
<defs>
<clipPath id="clip0_570_437">
<rect width="25" height="25" fill="white"/>
</clipPath>
</defs>
</svg>
