<svg width="25" height="25" viewBox="0 0 25 25" fill="none" xmlns="http://www.w3.org/2000/svg">
<g opacity="0.5" clip-path="url(#clip0_102_554)">
<path d="M25 16.6667V25H16.6667C15.2053 24.9985 13.77 24.6127 12.5048 23.8814C11.2396 23.1501 10.189 22.0989 9.45833 20.8333C10.2436 20.8277 11.0262 20.7411 11.7937 20.575C12.3783 21.3059 13.1198 21.8959 13.9633 22.3012C14.8069 22.7066 15.7308 22.9169 16.6667 22.9167H22.9167V16.6667C22.9164 15.7305 22.7054 14.8063 22.2993 13.9627C21.8932 13.1192 21.3025 12.3779 20.5708 11.7937C20.7384 11.0264 20.8263 10.2438 20.8333 9.45833C22.0989 10.189 23.1501 11.2396 23.8814 12.5048C24.6127 13.77 24.9985 15.2053 25 16.6667ZM18.75 9.375C18.75 6.8886 17.7623 4.50403 16.0041 2.74587C14.246 0.98772 11.8614 0 9.375 0C6.8886 0 4.50403 0.98772 2.74587 2.74587C0.98772 4.50403 0 6.8886 0 9.375L0 18.75H9.375C11.8606 18.7472 14.2435 17.7586 16.0011 16.0011C17.7586 14.2435 18.7472 11.8606 18.75 9.375ZM2.08333 9.375C2.08333 7.93284 2.51098 6.52308 3.3122 5.32397C4.11342 4.12486 5.25222 3.19027 6.5846 2.63838C7.91698 2.08649 9.38309 1.94209 10.7975 2.22344C12.212 2.50479 13.5112 3.19925 14.531 4.21901C15.5507 5.23877 16.2452 6.53802 16.5266 7.95247C16.8079 9.36691 16.6635 10.833 16.1116 12.1654C15.5597 13.4978 14.6251 14.6366 13.426 15.4378C12.2269 16.239 10.8172 16.6667 9.375 16.6667H2.08333V9.375Z" fill="#EF5B4F"/>
</g>
<defs>
<clipPath id="clip0_102_554">
<rect width="25" height="25" fill="white"/>
</clipPath>
</defs>
</svg>
