<svg id="Слой_1" data-name="Слой 1" xmlns="http://www.w3.org/2000/svg" viewBox="0 0 261.33 54"><defs><style>.cls-1{fill:#d7645b;}.cls-2{fill:#473421;}</style></defs><title>2</title><path class="cls-1" d="M25.73,155.17c-3.56,0-5.38-1.6-5.8-5C23.22,150.09,25.12,151.67,25.73,155.17Z" transform="translate(-10 -106.57)"/><path class="cls-1" d="M36.83,153.24C35.5,156,34.1,156.58,31,155.63,32.47,153.33,34.25,152.37,36.83,153.24Z" transform="translate(-10 -106.57)"/><path class="cls-1" d="M25.9,116.92a11.43,11.43,0,0,1-.48,5.08,17.3,17.3,0,0,1-2.25,5c-.31.45-.63.93-.94,1.47a20.8,20.8,0,0,0-1,2c.51-.57,1.31-1.42,2.35-2.4.73-.68,1.15-1,1.61-1.43a24.32,24.32,0,0,0,3.23-3.58,7.72,7.72,0,0,0,.71-6.5c-1.42-3.91-5.58-5.12-6-5.23A11.06,11.06,0,0,1,25.9,116.92Z" transform="translate(-10 -106.57)"/><path class="cls-1" d="M39,136.83A23.53,23.53,0,0,0,44,124c.13-2.29.59-10.09-4.84-14.74a13.19,13.19,0,0,0-5-2.65c.84,1.13,3.3,4.74,2.38,8.78a12.75,12.75,0,0,1-4.63,6.76c-1.11.93-2.54,2.14-4.19,3.57-1,.87-2.27,2.08-3.95,3.5-1.4,1.18-5.1,4.78-5.39,5.1-1-4.1-2.77-7.63-6.94-10,2.73,5.56-1.07,10.53-1.33,15.78a42.13,42.13,0,0,0,.77,10.08c.52,2.7,2.53,4.8,5.39,6.15-2.24-3.79-3.14-7.64-1.29-12.55l4.76,5.47c2.07-9.51,8.56-16.3,16.82-22-3.64,6.47-5.75,13.09-3.6,20.4l4.59-4,.74-.59c.27,2.53.55,5.07.82,7.6l.15.61a12.66,12.66,0,0,0,2.48-4.06c.67-1.83.54-2.51,1.25-5.2.93-3.49,2-4.51,5.7-5.41C46.66,135.5,43.53,135.61,39,136.83Z" transform="translate(-10 -106.57)"/><path class="cls-1" d="M26.62,157.3a12.43,12.43,0,0,1,1.81,0,12.57,12.57,0,0,1,1.88.3l-2,2.94Z" transform="translate(-10 -106.57)"/><path class="cls-2" d="M62.22,154h-3v-28.4H78.69v2.6H62.22Zm-.33-14.64h15V142h-15Z" transform="translate(-10 -106.57)"/><path class="cls-2" d="M84.29,154v-30.1h2.88V154Z" transform="translate(-10 -106.57)"/><path class="cls-2" d="M101.2,154.22a10.09,10.09,0,0,1-4.16-.79,6.22,6.22,0,0,1-2.69-2.19,5.62,5.62,0,0,1-.94-3.22,6,6,0,0,1,.79-3,5.68,5.68,0,0,1,2.6-2.19,11.82,11.82,0,0,1,4.85-.83H109v2.15h-7.26c-2.06,0-3.48.37-4.28,1.1a3.7,3.7,0,0,0,.22,5.64,6.39,6.39,0,0,0,4,1.09,7.74,7.74,0,0,0,4.2-1.11,6.45,6.45,0,0,0,2.57-3.23l.65,2a6.73,6.73,0,0,1-2.82,3.36A9.34,9.34,0,0,1,101.2,154.22Zm7.34-.2v-4.71l-.12-.77v-7.87a5.48,5.48,0,0,0-1.52-4.17,6.26,6.26,0,0,0-4.52-1.47,11.3,11.3,0,0,0-3.94.69,10,10,0,0,0-3.16,1.83L94,135.4a11.46,11.46,0,0,1,3.9-2.13,15.14,15.14,0,0,1,4.78-.75,9.14,9.14,0,0,1,6.39,2q2.25,2,2.25,6.23V154Z" transform="translate(-10 -106.57)"/><path class="cls-2" d="M119.13,154v-21.3h2.76v5.8l-.28-1a7,7,0,0,1,3-3.71,9.93,9.93,0,0,1,5.23-1.28v2.8l-.32,0-.33,0a6.83,6.83,0,0,0-5.27,2.05,8.21,8.21,0,0,0-1.91,5.82V154Z" transform="translate(-10 -106.57)"/><path class="cls-2" d="M143.92,154.22a11.71,11.71,0,0,1-5.84-1.4,10.13,10.13,0,0,1-3.94-3.85,11,11,0,0,1-1.42-5.62,11.27,11.27,0,0,1,1.36-5.6,10.09,10.09,0,0,1,3.73-3.83,11,11,0,0,1,10.67,0,9.68,9.68,0,0,1,3.67,3.81,11.66,11.66,0,0,1,1.34,5.66c0,.14,0,.28,0,.43s0,.3,0,.46H134.91v-2.15h17l-1.14.86a8.4,8.4,0,0,0-1-4.12,7.19,7.19,0,0,0-2.7-2.82,7.5,7.5,0,0,0-3.93-1,7.66,7.66,0,0,0-3.94,1,7,7,0,0,0-2.72,2.84,8.71,8.71,0,0,0-1,4.18v.44a8.3,8.3,0,0,0,1.08,4.28,7.43,7.43,0,0,0,3,2.88,9.14,9.14,0,0,0,4.4,1,9.46,9.46,0,0,0,3.63-.69,7.62,7.62,0,0,0,2.9-2.11l1.62,1.86a9,9,0,0,1-3.55,2.6A11.9,11.9,0,0,1,143.92,154.22Z" transform="translate(-10 -106.57)"/><path class="cls-2" d="M159.37,154v-30.1h2.88V139l-.4,4.3.28,4.3V154Zm11,.2a9.83,9.83,0,0,1-5-1.28,9,9,0,0,1-3.53-3.71,13.9,13.9,0,0,1,0-11.78,9.1,9.1,0,0,1,3.55-3.67,10,10,0,0,1,5-1.26,10.89,10.89,0,0,1,5.45,1.36,9.79,9.79,0,0,1,3.79,3.79,12.34,12.34,0,0,1,0,11.34,9.83,9.83,0,0,1-3.79,3.83A10.8,10.8,0,0,1,170.37,154.22Zm-.21-2.55a7.94,7.94,0,0,0,4.06-1,7.53,7.53,0,0,0,2.84-2.92,9.62,9.62,0,0,0,0-8.74,7.61,7.61,0,0,0-2.84-2.9,7.94,7.94,0,0,0-4.06-1,8,8,0,0,0-4.07,1,7.4,7.4,0,0,0-2.84,2.9,9.7,9.7,0,0,0,0,8.74,7.32,7.32,0,0,0,2.84,2.92A8,8,0,0,0,170.16,151.67Z" transform="translate(-10 -106.57)"/><path class="cls-2" d="M195.56,154.22a10.92,10.92,0,0,1-5.54-1.4,10.15,10.15,0,0,1-3.87-3.85,11.87,11.87,0,0,1,0-11.26A10.2,10.2,0,0,1,190,133.9a11.05,11.05,0,0,1,5.56-1.38,11.22,11.22,0,0,1,5.61,1.38,10,10,0,0,1,3.86,3.81A12,12,0,0,1,205,149a10,10,0,0,1-3.88,3.85A11.08,11.08,0,0,1,195.56,154.22Zm0-2.55a8,8,0,0,0,4.09-1,7.41,7.41,0,0,0,2.82-2.92,9.7,9.7,0,0,0,0-8.74,7.49,7.49,0,0,0-2.82-2.9,8.43,8.43,0,0,0-8.11,0,7.61,7.61,0,0,0-2.84,2.9,9.62,9.62,0,0,0,0,8.74,7.53,7.53,0,0,0,2.84,2.92A7.87,7.87,0,0,0,195.56,151.67Z" transform="translate(-10 -106.57)"/><path class="cls-2" d="M218.19,154.22a10.09,10.09,0,0,1-4.16-.79,6.22,6.22,0,0,1-2.69-2.19,5.62,5.62,0,0,1-.94-3.22,6,6,0,0,1,.79-3,5.68,5.68,0,0,1,2.6-2.19,11.82,11.82,0,0,1,4.85-.83H226v2.15h-7.26c-2.06,0-3.48.37-4.28,1.1a3.7,3.7,0,0,0,.22,5.64,6.39,6.39,0,0,0,4,1.09,7.74,7.74,0,0,0,4.2-1.11,6.45,6.45,0,0,0,2.57-3.23l.65,2a6.73,6.73,0,0,1-2.82,3.36A9.34,9.34,0,0,1,218.19,154.22Zm7.34-.2v-4.71l-.12-.77v-7.87a5.48,5.48,0,0,0-1.52-4.17,6.26,6.26,0,0,0-4.52-1.47,11.3,11.3,0,0,0-3.94.69,10.06,10.06,0,0,0-3.16,1.83L211,135.4a11.46,11.46,0,0,1,3.9-2.13,15.14,15.14,0,0,1,4.78-.75,9.14,9.14,0,0,1,6.39,2q2.25,2,2.25,6.23V154Z" transform="translate(-10 -106.57)"/><path class="cls-2" d="M236.12,154v-21.3h2.76v5.8l-.28-1a7,7,0,0,1,3-3.71,9.93,9.93,0,0,1,5.23-1.28v2.8l-.32,0-.33,0a6.83,6.83,0,0,0-5.27,2.05,8.21,8.21,0,0,0-1.91,5.82V154Z" transform="translate(-10 -106.57)"/><path class="cls-2" d="M260.34,154.22a10.81,10.81,0,0,1-5.46-1.38,9.89,9.89,0,0,1-3.79-3.83,12.34,12.34,0,0,1,0-11.34,9.86,9.86,0,0,1,3.79-3.79,10.9,10.9,0,0,1,5.46-1.36,9.92,9.92,0,0,1,5,1.26,9.19,9.19,0,0,1,3.53,3.67,12.16,12.16,0,0,1,1.32,5.9,12.4,12.4,0,0,1-1.3,5.88,9.12,9.12,0,0,1-3.51,3.71A9.83,9.83,0,0,1,260.34,154.22Zm.2-2.55a8,8,0,0,0,4.08-1,7.39,7.39,0,0,0,2.84-2.92,9.79,9.79,0,0,0,0-8.74,7.47,7.47,0,0,0-2.84-2.9,8,8,0,0,0-4.08-1,7.86,7.86,0,0,0-4,1,7.61,7.61,0,0,0-2.84,2.9,9.54,9.54,0,0,0,0,8.74,7.53,7.53,0,0,0,2.84,2.92A7.86,7.86,0,0,0,260.54,151.67Zm8,2.35v-6.41l.29-4.3-.41-4.3V123.92h2.88V154Z" transform="translate(-10 -106.57)"/></svg>