<svg width="25" height="25" viewBox="0 0 25 25" fill="none" xmlns="http://www.w3.org/2000/svg">
<g clip-path="url(#clip0_102_559)">
<path d="M22.4135 15.1729C23.8517 15.1729 25.0177 14.007 25.0177 12.5688C25.0177 11.1305 23.8517 9.9646 22.4135 9.9646C20.9753 9.9646 19.8093 11.1305 19.8093 12.5688C19.8093 14.007 20.9753 15.1729 22.4135 15.1729Z" fill="#828282"/>
<path d="M12.4999 15.1041C13.9382 15.1041 15.1041 13.9382 15.1041 12.5C15.1041 11.0617 13.9382 9.89581 12.4999 9.89581C11.0617 9.89581 9.89575 11.0617 9.89575 12.5C9.89575 13.9382 11.0617 15.1041 12.4999 15.1041Z" fill="#828282"/>
<path d="M2.60417 15.1041C4.04241 15.1041 5.20833 13.9382 5.20833 12.5C5.20833 11.0617 4.04241 9.89581 2.60417 9.89581C1.16593 9.89581 0 11.0617 0 12.5C0 13.9382 1.16593 15.1041 2.60417 15.1041Z" fill="#828282"/>
</g>
<defs>
<clipPath id="clip0_102_559">
<rect width="25" height="25" fill="white"/>
</clipPath>
</defs>
</svg>
