<svg width="25" height="25" viewBox="0 0 25 25" fill="none" xmlns="http://www.w3.org/2000/svg">
<g clip-path="url(#clip0_570_434)">
<path d="M24.3969 17.2739L20.9688 13.8458C20.8732 13.7441 20.7582 13.6626 20.6306 13.6061C20.5029 13.5497 20.3652 13.5195 20.2256 13.5173C20.0861 13.5152 19.9475 13.5411 19.8181 13.5935C19.6888 13.6459 19.5713 13.7238 19.4726 13.8226C19.374 13.9213 19.2961 14.0389 19.2438 14.1682C19.1915 14.2976 19.1657 14.4362 19.1679 14.5758C19.1702 14.7154 19.2005 14.853 19.257 14.9807C19.3135 15.1083 19.3951 15.2232 19.4969 15.3187L21.8823 17.7083C20.5856 17.7113 19.3014 17.4547 18.1053 16.9538C16.9092 16.4529 15.8254 15.7178 14.9177 14.7916C14.817 14.6988 14.6985 14.6272 14.5695 14.581C14.4405 14.5348 14.3036 14.515 14.1668 14.5228C14.03 14.5306 13.8961 14.5658 13.7732 14.6263C13.6502 14.6868 13.5407 14.7713 13.4511 14.875L13.4375 14.8958C13.2624 15.0995 13.1728 15.363 13.1873 15.6313C13.2019 15.8996 13.3195 16.1518 13.5157 16.3354C14.6092 17.4413 15.9132 18.3169 17.3508 18.9106C18.7883 19.5042 20.3302 19.8038 21.8855 19.7916L19.4969 22.1802C19.3881 22.2738 19.2998 22.3889 19.2375 22.5183C19.1753 22.6476 19.1404 22.7885 19.1352 22.9319C19.13 23.0754 19.1544 23.2184 19.2071 23.352C19.2598 23.4855 19.3394 23.6067 19.4412 23.708C19.5429 23.8093 19.6645 23.8885 19.7983 23.9406C19.932 23.9927 20.0751 24.0166 20.2186 24.0107C20.362 24.0049 20.5027 23.9694 20.6318 23.9066C20.7609 23.8438 20.8756 23.755 20.9688 23.6458L24.3969 20.2177C24.7868 19.8271 25.0058 19.2977 25.0058 18.7458C25.0058 18.1939 24.7868 17.6645 24.3969 17.2739Z" fill="#4F4F4F"/>
<path d="M21.8824 7.29168L19.497 9.6771C19.4767 9.70452 19.4579 9.73303 19.4407 9.76251C19.2726 9.96746 19.1897 10.2292 19.2091 10.4935C19.2286 10.7579 19.3488 11.0047 19.5451 11.1828C19.7413 11.361 19.9985 11.457 20.2635 11.4509C20.5285 11.4448 20.781 11.3371 20.9688 11.15L22.7459 9.37501L24.398 7.72397C24.6773 7.44247 24.8705 7.08709 24.9548 6.6996C25.0392 6.3121 25.0111 5.90859 24.8741 5.53647C24.7729 5.25163 24.6099 4.99267 24.397 4.77814L20.9688 1.35418C20.8737 1.25086 20.7587 1.16783 20.6307 1.11009C20.5027 1.05234 20.3644 1.02108 20.224 1.01817C20.0836 1.01526 19.944 1.04077 19.8138 1.09316C19.6835 1.14555 19.5651 1.22375 19.4658 1.32304C19.3665 1.42234 19.2883 1.54069 19.236 1.67097C19.1836 1.80126 19.1581 1.94079 19.161 2.08119C19.1639 2.22158 19.1951 2.35994 19.2529 2.48795C19.3106 2.61595 19.3936 2.73096 19.497 2.82606L21.8855 5.21356C16.747 5.22606 13.9303 7.99897 11.3761 10.9156C9.03031 8.26772 6.2501 5.62501 1.54906 5.25626L1.04801 5.20835C0.771747 5.20835 0.506795 5.31809 0.311445 5.51345C0.116094 5.7088 0.00634766 5.97375 0.00634766 6.25001C0.0116811 6.52461 0.12314 6.78648 0.317346 6.98068C0.511553 7.17489 0.773417 7.28635 1.04801 7.29168C1.12301 7.29168 1.34697 7.32606 1.34697 7.32606C5.40531 7.63335 7.73447 9.91876 10.0001 12.5C7.74802 15.0688 5.43447 17.3958 1.40947 17.6667L0.992806 17.6886C0.718611 17.7057 0.46245 17.831 0.280677 18.037C0.0989032 18.243 0.00640659 18.5128 0.0235352 18.787C0.0406637 19.0612 0.166014 19.3173 0.372011 19.4991C0.578008 19.6809 0.847778 19.7734 1.12197 19.7563C1.28447 19.749 1.54906 19.7427 1.67926 19.7323C6.90843 19.3292 9.74489 15.9823 12.2741 13.0563C14.8282 10.1042 17.2407 7.31043 21.8824 7.29168Z" fill="#4F4F4F"/>
</g>
<defs>
<clipPath id="clip0_570_434">
<rect width="25" height="25" fill="white"/>
</clipPath>
</defs>
</svg>
