<svg width="20" height="20" viewBox="0 0 20 20" fill="none" xmlns="http://www.w3.org/2000/svg">
<path d="M6.14167 2.41667C6.7975 1.86085 7.485 1.27667 8.185 0.639988C8.72199 0.151629 9.44722 -0.0746992 10.1667 0.021668C10.8639 0.113777 11.4842 0.510613 11.86 1.10499C12.8534 2.76499 13.5557 4.58253 13.9367 6.47917C14.0862 6.26331 14.2188 6.03628 14.3334 5.79999C14.728 4.96843 15.7221 4.61425 16.5537 5.00893C16.755 5.10448 16.9351 5.23944 17.0834 5.40581C18.4811 6.83417 19.256 8.75819 19.2384 10.7566C19.2781 14.9571 16.4527 18.645 12.3867 19.7C11.6302 19.8903 10.8534 19.9888 10.0734 19.9933C10.0484 19.9933 9.78254 19.9908 9.67504 19.9833C4.70004 19.8222 0.752144 15.7392 0.758356 10.7616C0.761675 6.98667 3.255 4.86999 6.14167 2.41667ZM10.0942 18.3208C10.7144 18.2736 11.3273 18.0224 11.79 17.6491C12.5146 17.1364 12.9941 16.3845 13.1083 15.5183C13.25 14.1666 12.4166 12.3991 10.7141 10.4025C10.5356 10.194 10.2744 10.0745 9.99996 10.0758C9.72902 10.0739 9.47136 10.193 9.29746 10.4008C7.73746 12.2525 6.88078 13.9608 6.88078 15.2116C6.88558 16.855 8.17008 18.155 9.80578 18.3133C9.87761 18.3203 10 18.3308 10.0942 18.3208ZM5.35332 16.7358C5.4025 16.7741 5.45664 16.805 5.50664 16.8416C5.31437 16.3191 5.21535 15.7668 5.21414 15.2099C5.21414 13.1041 6.74332 10.8474 8.02496 9.32495C8.51531 8.74421 9.23656 8.40889 9.99664 8.40827H10C10.7616 8.4069 11.4855 8.73991 11.98 9.31909C14.0175 11.7058 14.9533 13.8499 14.7617 15.6924C14.7162 16.1201 14.6069 16.5387 14.4375 16.9341C16.4163 15.5003 17.5823 13.2002 17.5692 10.7566C17.5853 9.16913 16.9593 7.64249 15.8334 6.52327C15.6411 6.92288 15.4103 7.30272 15.1442 7.65745C14.7787 8.15159 14.1543 8.38089 13.5559 8.24077C12.9457 8.10581 12.472 7.6246 12.3467 7.01245C12.0119 5.24276 11.3721 3.54471 10.4559 1.99413C10.3431 1.81686 10.1569 1.69944 9.94836 1.67413C9.71527 1.64276 9.48031 1.71632 9.30668 1.87495C8.59168 2.52495 7.89 3.12495 7.22336 3.68913C4.44168 6.05163 2.43085 7.75831 2.43085 10.7616C2.42367 13.0989 3.50257 15.3069 5.35085 16.7374L5.35332 16.7358Z" fill="#EF5B4F"/>
</svg>
